<?xml version="1.0" encoding="utf-8"?>
<!-- Generator: Adobe Illustrator 24.0.1, SVG Export Plug-In . SVG Version: 6.00 Build 0)  -->
<svg version="1.1" id="Layer_1" xmlns="http://www.w3.org/2000/svg" xmlns:xlink="http://www.w3.org/1999/xlink" x="0px" y="0px"
	 viewBox="0 0 1252.55 258.97" style="enable-background:new 0 0 1252.55 258.97;" xml:space="preserve">
<style type="text/css">
	.st0{fill:#2F63E3;}
</style>
<g>
	<g>
		<path class="st0" d="M235.27,29.31l6.55-24.46C166.2-15.4,88.21,29.64,67.96,105.26l24.46,6.55
			C109.06,49.68,173.14,12.67,235.27,29.31z"/>
		<path class="st0" d="M223.69,72.53l6.55-24.46c-51.78-13.87-105.19,16.98-119.06,68.77l24.46,6.55
			C145.9,85.09,185.4,62.27,223.69,72.53z"/>
		<path class="st0" d="M212.12,115.75l6.55-24.46c-27.95-7.48-56.78,9.16-64.26,37.12l24.46,6.55
			C182.74,120.5,197.66,111.88,212.12,115.75z"/>
	</g>
	<g>
		<path class="st0" d="M6.55,229.66L0,254.12c75.62,20.25,153.61-24.79,173.86-100.41l-24.46-6.55
			C132.76,209.29,68.68,246.3,6.55,229.66z"/>
		<path class="st0" d="M18.12,186.44l-6.55,24.46c51.78,13.87,105.19-16.98,119.06-68.77l-24.46-6.55
			C95.92,173.88,56.42,196.7,18.12,186.44z"/>
		<path class="st0" d="M29.7,143.22l-6.55,24.46c27.95,7.48,56.78-9.16,64.26-37.12l-24.46-6.55
			C59.08,138.47,44.16,147.09,29.7,143.22z"/>
	</g>
</g>
<g>
	<g>
		<path class="st0" d="M283.46,175.38c0-6.98,7.56-11.44,8.34-10.86c6.4,7.17,17.26,12.8,31.22,12.8c10.67,0,16.48-3.68,16.48-9.7
			c0-7.37-7.56-8.73-20.17-11.44c-12.99-2.71-33.16-6.98-33.16-28.31c0-18.42,14.93-30.64,39.37-30.64c19.2,0,31.03,5.24,35.87,12.6
			c1.55,2.33,2.33,5.04,2.33,7.76c0,7.17-8.34,12.02-8.73,11.44c-6.4-7.37-16.68-12.8-27.73-12.8c-10.47,0-16.1,3.88-16.1,9.89
			c0,6.79,7.37,8.14,20.17,11.05c13.38,2.91,34.71,7.17,34.71,28.51c0,19-15.13,30.44-41.69,30.44c-14.93,0-25.79-2.91-32.58-7.17
			C286.37,185.27,283.46,180.62,283.46,175.38z"/>
		<path class="st0" d="M391.67,164.14V120.7h-4.85c-7.76,0-11.25-3.49-11.25-9.7v-1.55c0-6.4,3.49-10.08,11.05-10.08h5.04V87.35
			c0-8.92,4.46-13.19,12.22-13.19h2.52c7.17,0,12.02,3.1,12.02,13.19v12.02h16.48c7.76,0,11.05,3.3,11.05,9.5v1.75
			c0,6.59-3.49,10.08-11.25,10.08h-16.68v40.33c0,9.31,2.91,13.96,10.47,13.96c5.43,0,9.31-2.71,11.83-6.4
			c0.97-0.39,6.79,3.49,6.79,10.67c0,4.07-1.55,7.56-4.65,10.47c-4.27,4.27-11.25,6.98-20.36,6.98
			C401.37,196.72,391.67,185.66,391.67,164.14z"/>
		<path class="st0" d="M530.14,113.14c0,10.86-8.34,14.74-8.73,14.35c-2.91-2.52-7.17-4.65-12.41-4.65c-13.19,0-19,11.63-19,30.64
			v28.31c0,9.89-5.04,12.99-12.02,12.99h-2.91c-7.37,0-12.41-2.91-12.41-12.99V101.5c0-0.97,4.65-3.1,10.28-3.1
			c5.62,0,11.83,2.33,14.93,10.28c0.58,1.75,0.97,4.07,1.36,6.59c3.68-11.25,11.64-18.03,23.46-18.03
			C523.54,97.24,530.14,103.44,530.14,113.14z"/>
		<path class="st0" d="M583.08,97.24c28.12,0,47.12,19.59,47.12,47.32v1.75c-0.19,4.65-1.55,7.17-6.59,7.17h-65.54l0.58,3.1
			c2.91,12.41,13.19,20.36,27.15,20.36c14.16,0,22.3-6.21,26.57-13.77c0.19-0.39,13.38,0.78,13.38,11.63
			c0,5.24-3.68,10.67-10.47,14.74c-6.98,4.27-17.06,7.17-30.25,7.17c-30.83,0-51-19.2-51-49.25
			C534.02,118.57,554.58,97.24,583.08,97.24z M582.89,116.05c-12.99,0-22.69,9.31-24.43,22.49H605
			C604.22,124.77,595.88,116.05,582.89,116.05z"/>
		<path class="st0" d="M703.32,137.57h3.1c0-0.97,0-1.94-0.19-2.71c-0.39-11.05-7.17-17.06-19.2-17.06
			c-12.99,0-19.97,6.59-23.27,13.77c-0.19,0.39-17.65,1.75-17.65-10.86c0-4.27,1.94-8.73,5.82-12.41
			c6.4-6.59,18.62-11.05,36.84-11.05c30.06,0,44.6,13.77,44.6,39.17v55.85c0,1.36-5.04,3.1-10.28,3.1c-6.59,0-11.83-2.71-14.35-9.11
			c-0.58-1.75-1.16-3.88-1.55-6.4c-6.59,10.28-18.62,16.29-32.77,16.29c-19.78,0-31.8-10.86-31.8-27.15
			C642.63,147.85,663.18,138.15,703.32,137.57z M706.43,151.34h-5.24c-21.52,0.78-32.97,4.85-32.97,15.51
			c0,7.17,5.62,11.63,14.74,11.63c13.57,0,23.27-8.34,23.46-20.36V151.34z"/>
		<path class="st0" d="M906.95,134.86v46.93c0,9.89-5.04,12.99-12.02,12.99h-2.91c-7.37,0-12.41-2.91-12.41-12.99v-42.66
			c0-12.41-5.43-19-16.48-19c-7.76,0-14.74,4.85-18.62,11.63v50.03c0,9.89-5.04,12.99-12.02,12.99h-2.91
			c-7.17,0-12.41-2.91-12.41-12.99V139.7c0-12.99-5.43-19.59-16.29-19.59c-7.76,0-14.74,4.85-18.62,11.63v50.03
			c0,9.89-5.04,12.99-12.02,12.99h-2.91c-7.37,0-12.41-2.91-12.41-12.99V101.5c0-0.97,4.85-3.1,10.28-3.1
			c6.79,0,14.16,2.91,16.29,15.51c6.4-9.5,15.51-16.68,29.28-16.68c15.71,0,25.6,7.56,30.25,19.39c6.4-10.86,16.1-19.39,31.8-19.39
			C896.86,97.24,906.95,112.56,906.95,134.86z"/>
		<path class="st0" d="M955.06,185.47c-0.97,6.98-5.43,9.31-11.25,9.31h-2.91c-7.17,0-12.41-2.91-12.41-13.19V62.33
			c0-0.78,4.85-3.1,10.47-3.1c7.95,0,16.87,4.27,16.87,21.91v31.61c6.79-9.7,17.06-15.51,30.44-15.51c25.6,0,43.63,19.2,43.63,49.45
			c0,29.48-17.84,50.03-43.83,50.03c-14.74,0-25.6-7.56-30.44-16.87L955.06,185.47z M979.68,119.15c-11.64,0-19.78,6.01-23.85,15.51
			v18.42c0.39,12.8,10.67,21.72,23.66,21.72c14.54,0,24.24-11.25,24.24-27.92S993.84,119.15,979.68,119.15z"/>
		<path class="st0" d="M1091.78,97.24c28.12,0,47.12,19.59,47.12,47.32v1.75c-0.19,4.65-1.55,7.17-6.59,7.17h-65.54l0.58,3.1
			c2.91,12.41,13.19,20.36,27.15,20.36c14.16,0,22.3-6.21,26.57-13.77c0.19-0.39,13.38,0.78,13.38,11.63
			c0,5.24-3.68,10.67-10.47,14.74c-6.98,4.27-17.06,7.17-30.25,7.17c-30.83,0-51-19.2-51-49.25
			C1042.72,118.57,1063.28,97.24,1091.78,97.24z M1091.59,116.05c-12.99,0-22.69,9.31-24.43,22.49h46.54
			C1112.92,124.77,1104.58,116.05,1091.59,116.05z"/>
		<path class="st0" d="M1151.32,146.88c0-30.06,17.84-49.64,44.02-49.64c13.57,0,24.43,6.21,29.86,14.35V62.33
			c0-0.78,4.85-3.1,10.28-3.1c8.14,0,17.06,4.27,17.06,21.91v100.64c0,9.89-4.85,12.99-12.02,12.99h-2.71
			c-6.21,0-10.86-2.13-11.83-9.5c-0.19-2.13-0.39-4.27-0.39-6.59c-6.4,11.05-16.87,18.03-30.83,18.03
			C1169.16,196.72,1151.32,176.55,1151.32,146.88z M1225.4,134.27c-4.07-9.31-11.83-15.13-23.46-15.13
			c-14.74,0-24.63,10.67-24.63,27.73c0,16.48,10.08,27.92,24.24,27.92c12.99,0,23.85-9.11,23.85-22.69V134.27z"/>
	</g>
</g>
</svg>
